<svg width="72" height="52" viewBox="0 0 62 82" fill="none" xmlns="http://www.w3.org/2000/svg">
<path d="M3 31.2C3 46.7743 15.6256 59.4 31.2 59.4C46.7743 59.4 59.4 46.7743 59.4 31.2C59.4 15.6256 46.7743 3 31.2 3C15.6256 3 3 15.6256 3 31.2ZM3 31.2V59.4Z" fill="#4D6BB7"/>
<path d="M3 31.2C3 46.7743 15.6256 59.4 31.2 59.4C46.7743 59.4 59.4 46.7743 59.4 31.2C59.4 15.6256 46.7743 3 31.2 3C15.6256 3 3 15.6256 3 31.2ZM3 31.2V59.4" stroke="black" stroke-width="4.23" stroke-linecap="round" stroke-linejoin="round"/>
<path d="M17.1 36.84C20.2149 36.84 22.74 34.315 22.74 31.2C22.74 28.085 20.2149 25.56 17.1 25.56C13.9851 25.56 11.46 28.085 11.46 31.2C11.46 34.315 13.9851 36.84 17.1 36.84Z" fill="#B3C5F3" stroke="black" stroke-width="4.23" stroke-linecap="round" stroke-linejoin="round"/>
<path d="M45.3 36.84C48.415 36.84 50.94 34.315 50.94 31.2C50.94 28.085 48.415 25.56 45.3 25.56C42.185 25.56 39.66 28.085 39.66 31.2C39.66 34.315 42.185 36.84 45.3 36.84Z" fill="#B3C5F3" stroke="black" stroke-width="4.23" stroke-linecap="round" stroke-linejoin="round"/>
<path d="M31.2 22.74C34.315 22.74 36.84 20.2149 36.84 17.1C36.84 13.9851 34.315 11.46 31.2 11.46C28.085 11.46 25.56 13.9851 25.56 17.1C25.56 20.2149 28.085 22.74 31.2 22.74Z" fill="#B3C5F3" stroke="black" stroke-width="4.23" stroke-linecap="round" stroke-linejoin="round"/>
<path d="M31.2 50.94C34.315 50.94 36.84 48.415 36.84 45.3C36.84 42.185 34.315 39.66 31.2 39.66C28.085 39.66 25.56 42.185 25.56 45.3C25.56 48.415 28.085 50.94 31.2 50.94Z" fill="#B3C5F3" stroke="black" stroke-width="4.23" stroke-linecap="round" stroke-linejoin="round"/>
</svg>
